<?xml version="1.0" encoding="UTF-8" standalone="no"?>
<!-- Created with Inkscape (http://www.inkscape.org/) -->

<svg
   width="188.9088mm"
   height="233.41582mm"
   viewBox="0 0 188.9088 233.41582"
   version="1.1"
   id="svg1"
   xml:space="preserve"
   inkscape:version="1.4.2 (ebf0e940d0, 2025-05-08)"
   sodipodi:docname="logo.svg"
   inkscape:export-filename="logo.png"
   inkscape:export-xdpi="49.15"
   inkscape:export-ydpi="49.15"
   xmlns:inkscape="http://www.inkscape.org/namespaces/inkscape"
   xmlns:sodipodi="http://sodipodi.sourceforge.net/DTD/sodipodi-0.dtd"
   xmlns="http://www.w3.org/2000/svg"
   xmlns:svg="http://www.w3.org/2000/svg"><sodipodi:namedview
     id="namedview1"
     pagecolor="#ffffff"
     bordercolor="#666666"
     borderopacity="1.0"
     inkscape:showpageshadow="2"
     inkscape:pageopacity="0.0"
     inkscape:pagecheckerboard="0"
     inkscape:deskcolor="#d1d1d1"
     inkscape:document-units="mm"
     inkscape:zoom="0.81780303"
     inkscape:cx="350.94025"
     inkscape:cy="443.87216"
     inkscape:window-width="1854"
     inkscape:window-height="1168"
     inkscape:window-x="0"
     inkscape:window-y="0"
     inkscape:window-maximized="1"
     inkscape:current-layer="layer1"
     showgrid="false" /><defs
     id="defs1" /><g
     inkscape:label="Layer 1"
     inkscape:groupmode="layer"
     id="layer1"
     transform="translate(-70.434878,-66.568769)"><path
       style="fill:#000000"
       d="m 159.28811,224.54475 c -1.10838,-0.30831 -0.8128,-0.943 0.48258,-1.0362 1.31655,-0.0947 2.08004,0.33872 1.60495,0.91117 -0.31902,0.3844 -1.00696,0.4256 -2.08753,0.12503 z m 4.34082,-0.068 c -0.26978,-0.43652 0.64716,-1.0189 1.59673,-1.01415 1.04212,0.005 1.59083,0.35982 1.38535,0.89529 -0.19491,0.50793 -2.68039,0.607 -2.98208,0.11886 z m 5.05189,-0.22445 c -0.28391,-0.45937 0.0839,-0.71759 1.24389,-0.87317 1.28504,-0.17236 1.99036,0.19128 1.5051,0.77599 -0.34694,0.41803 -2.50358,0.49427 -2.74899,0.0972 z m -14.88281,-0.17523 c -0.3965,-0.15998 -0.4368,-0.78632 -0.0654,-1.01587 0.14595,-0.0902 0.80079,-0.0837 1.45521,0.0144 0.92653,0.13895 1.18984,0.28889 1.18984,0.67756 0,0.41409 -0.19156,0.49556 -1.12448,0.47823 -0.61846,-0.0115 -1.2733,-0.0809 -1.4552,-0.15434 z m 19.89564,-0.37699 c -0.28265,-0.45734 0.2048,-0.75254 1.5463,-0.93641 1.13004,-0.15489 1.24608,-0.12104 1.24608,0.36348 0,0.3304 -0.22717,0.59515 -0.59532,0.69381 -0.93947,0.25177 -2.00291,0.19326 -2.19706,-0.12088 z m -23.88891,-0.24166 c -1.97752,-0.46428 -1.73549,-1.53193 0.25792,-1.13772 0.87495,0.17303 1.15566,0.34969 1.15566,0.7273 0,0.60503 -0.26139,0.68093 -1.41358,0.41042 z m 28.93361,-0.52359 c -0.30692,-0.4966 0.24271,-0.8472 1.56113,-0.9958 0.98483,-0.11101 1.21363,-0.0584 1.21363,0.27887 0,0.5333 -0.21292,0.65466 -1.51336,0.86261 -0.70689,0.11304 -1.13184,0.064 -1.2614,-0.14568 z m -34.06847,-0.58824 c -0.73383,-0.1949 -0.99218,-0.40327 -0.99218,-0.80022 0,-0.483 0.1125,-0.51885 1.12447,-0.35833 1.21335,0.19247 1.95708,0.72121 1.66934,1.18679 -0.20745,0.33566 -0.44555,0.33193 -1.80163,-0.0282 z m 39.00426,-0.77158 c 0.0664,-0.46237 0.33161,-0.66961 1.08338,-0.84661 1.06159,-0.24995 1.78267,-0.10952 1.78267,0.34715 0,0.30705 -0.71578,0.62479 -2.0723,0.91989 -0.81448,0.17719 -0.87498,0.14515 -0.79375,-0.42043 z m -43.94944,-0.69656 c -1.20924,-0.61454 -1.35195,-1.12406 -0.31484,-1.12406 1.12601,0 2.15117,0.52459 2.15117,1.1008 0,0.61676 -0.65224,0.62502 -1.83633,0.0233 z m 17.97591,0.16379 c -22.97128,-1.8688 -44.03171,-14.50489 -57.26873,-34.36075 -3.901141,-5.8518 -7.701677,-14.29572 -9.680483,-21.5078 -0.627008,-2.28524 -1.051498,-3.32872 -1.587591,-3.90261 l -0.731748,-0.78334 h -6.613313 -6.613312 l -0.835144,-0.95117 c -0.697884,-0.79485 -0.821973,-1.13186 -0.755012,-2.05052 l 0.08013,-1.09935 3.663399,-0.0738 c 3.160496,-0.0636 3.642078,-0.12934 3.508083,-0.47852 -0.255153,-0.66492 0.321414,-2.69481 1.721598,-6.06113 1.323262,-3.18139 2.181122,-4.36678 3.160215,-4.36678 0.342178,0 0.514412,-0.18157 0.514412,-0.5423 0,-0.75974 0.667476,-1.9658 1.412109,-2.55153 0.55827,-0.43913 0.66598,-0.85049 0.958684,-3.66138 1.953073,-18.75569 9.189414,-34.19752 21.999263,-46.944827 17.63421,-17.548112 43.7737,-25.157609 68.55984,-19.958536 28.99885,6.08272 52.63831,29.875223 58.51205,58.890863 3.36085,16.60228 1.09201,33.77757 -6.47062,48.9829 -0.86712,1.74342 -1.52296,3.22346 -1.45744,3.28898 0.0655,0.0655 0.7368,-0.21704 1.49173,-0.62792 2.26379,-1.23212 3.18067,-2.78882 3.97431,-6.74771 0.56133,-2.8001 1.31028,-4.59641 2.51177,-6.02429 0.44272,-0.52614 0.73707,-1.22496 0.78465,-1.8628 0.0941,-1.26166 0.53809,-2.13311 1.08679,-2.13311 0.32501,0 0.3934,0.23019 0.31443,1.05833 -0.0555,0.58208 -0.0383,1.05704 0.0383,1.05547 0.0766,-0.002 0.7346,-0.18354 1.4622,-0.40438 3.47307,-1.05409 7.01316,1.38415 7.01047,4.82847 -0.002,2.22842 -1.51046,3.78086 -3.67438,3.78086 -1.29486,0 -2.25214,1.05418 -2.93397,3.23096 -1.25607,4.01007 -2.92245,6.41968 -5.66576,8.19276 -1.73746,1.12298 -4.4518,2.07002 -5.93293,2.07002 -0.7164,0 -1.09439,0.17559 -1.51584,0.70414 -0.5961,0.74757 -1.17821,0.66714 -1.17821,-0.16279 0,-0.37571 -0.24646,-0.50927 -1.08784,-0.58951 -0.99037,-0.0944 -1.15,-0.0199 -1.78148,0.83211 -1.83928,2.48155 -5.00214,6.26987 -6.97786,8.35775 -9.01668,9.52849 -22.2087,17.22771 -35.12395,20.49929 -8.05621,2.04073 -16.56675,2.75018 -24.87887,2.07395 z m 8.16922,-5.55031 c 0.47277,-2.48987 1.26782,-7.28214 1.76677,-10.64948 0.49896,-3.36734 0.96481,-6.44986 1.03524,-6.85004 0.0704,-0.40018 0.01,-0.72761 -0.13473,-0.72761 -0.14453,0 -1.42148,0.57954 -2.83766,1.28786 -3.88621,1.94373 -3.39576,1.9967 -6.15672,-0.66488 -1.76634,-1.70275 -2.49833,-2.25157 -2.7557,-2.06612 -0.19276,0.13888 -1.50705,1.29512 -2.92064,2.56941 -1.4136,1.27429 -2.82989,2.38207 -3.1473,2.46174 -0.67149,0.16853 -6.757,-0.68402 -11.57344,-1.62139 -4.16567,-0.81071 -10.19551,-2.45398 -14.04981,-3.82889 -1.61577,-0.57638 -2.97422,-1.01151 -3.01878,-0.96695 -0.18979,0.18979 -1.93136,8.62172 -2.00204,9.69301 -0.0769,1.16527 -0.0629,1.18624 1.64226,2.46901 l 1.71979,1.29376 0.16713,-0.74921 c 0.0919,-0.41207 0.18783,-1.40407 0.21312,-2.20443 0.0565,-1.78737 1.35535,-6.93912 1.78397,-7.07587 0.19535,-0.0623 0.37953,0.3766 0.49225,1.17304 0.0991,0.69994 0.56244,3.59011 1.02975,6.4226 l 0.84966,5.14999 1.8331,0.99738 c 2.62464,1.42806 6.81355,3.23214 10.28019,4.42749 3.25913,1.12379 8.5949,2.51095 8.81436,2.2915 0.0753,-0.0753 0.47729,-1.83806 0.89331,-3.91725 0.41602,-2.07919 0.86749,-4.03309 1.00326,-4.342 0.18505,-0.42104 0.73239,-0.67972 2.18608,-1.03315 1.06658,-0.25932 2.58295,-0.69118 3.36972,-0.95969 1.8314,-0.62504 2.17128,-0.60551 1.35017,0.0775 -0.85544,0.71162 -2.7008,1.62964 -4.38039,2.17915 l -1.33515,0.43682 -0.74343,3.81296 c -0.40888,2.09714 -0.67658,3.92113 -0.59487,4.05333 0.29834,0.48273 7.30257,1.29184 11.69832,1.35136 l 2.66263,0.036 z m 6.91203,3.9675 c 16.63195,-1.76573 33.41303,-10.3243 44.85772,-22.87802 2.95362,-3.23984 4.38062,-4.93521 4.25755,-5.05827 -0.0517,-0.0517 -0.41114,0.0266 -0.79879,0.174 -1.96866,0.74848 -11.99601,1.49065 -14.54184,1.0763 -1.39671,-0.22732 -1.61867,-0.1959 -2.32971,0.3298 -1.50067,1.1095 -6.09703,0.9217 -7.19728,-0.29406 -0.40929,-0.45226 -0.55448,-0.46299 -1.82053,-0.13458 -2.45303,0.63631 -5.04829,0.33846 -6.16123,-0.70709 -0.33897,-0.31844 -0.7465,-0.49851 -0.90564,-0.40016 -0.44,0.27194 -2.10066,-0.3659 -2.3977,-0.92092 -0.64552,-1.20617 -0.003,-3.1189 1.31817,-3.92216 l 0.76129,-0.46296 -0.75671,-1.1267 c -0.41618,-0.61969 -0.79551,-1.24314 -0.84295,-1.38546 -0.0474,-0.14231 -0.85041,0.11143 -1.7844,0.56385 -6.01793,2.91513 -8.46212,3.43049 -10.92408,2.30336 l -1.44536,-0.6617 -0.18287,-2.87774 c -0.30653,-4.82375 -2.04765,-14.91628 -2.57329,-14.91628 -0.12095,0 -0.16764,0.14883 -0.10375,0.33073 0.37258,1.06082 2.50315,22.82251 2.51053,25.64251 0.002,0.72161 -0.16296,1.09438 -0.64351,1.45521 -0.59105,0.44379 -0.68217,0.8117 -1.07031,4.32155 -0.5699,5.15336 -2.63135,17.77654 -3.2121,19.66909 -0.164,0.53444 -0.18425,0.53485 5.98679,-0.1203 z m -54.1226,-16.17534 c 0.0775,-0.47294 0.26776,-1.6338 0.42275,-2.57968 0.15499,-0.94589 0.5732,-2.83173 0.92937,-4.19077 0.5375,-2.051 0.64757,-3.09622 0.64757,-6.14966 v -3.67867 l 2.71198,-2.71389 c 2.46158,-2.46332 4.63976,-5.50265 5.31065,-7.41024 0.32423,-0.92192 -0.23848,-0.42596 -1.2034,1.06065 -2.23678,3.44608 -6.26754,7.43499 -8.6398,8.55008 -0.93236,0.43826 -1.55706,0.54007 -2.79871,0.4561 -2.11766,-0.1432 -3.31059,-0.7605 -5.26585,-2.72486 -2.6878,-2.70031 -7.20163,-9.41012 -6.98362,-10.38112 0.0576,-0.25662 -0.231,-1.14779 -0.64137,-1.98039 -1.00334,-2.03566 -0.96298,-2.4437 0.32196,-3.25485 0.58745,-0.37084 0.99801,-0.78764 0.91236,-0.92622 -0.4958,-0.80222 -2.71938,-1.64336 -6.299729,-2.38307 -2.130101,-0.44008 -4.427771,-1.03799 -5.105932,-1.32869 -0.678161,-0.29069 -1.278707,-0.48284 -1.334547,-0.42701 -0.05584,0.0558 0.326972,1.51735 0.850691,3.2478 3.64303,12.03712 9.817707,22.38824 18.772607,31.47009 2.13214,2.16236 6.71944,6.1864 7.06561,6.19803 0.10255,0.003 0.24988,-0.38068 0.32741,-0.85363 z m 36.70467,-10.90622 c 0.38898,-0.85372 -0.12261,-1.5216 -1.08025,-1.41028 -0.48282,0.0561 -0.70955,0.25898 -0.77057,0.6894 -0.18653,1.31582 1.31354,1.90008 1.85082,0.72088 z m 45.46376,-0.64766 c 0,-0.95793 0.23752,-1.60914 0.58692,-1.60914 0.15568,0 0.20056,0.35611 0.10836,0.8599 -0.24084,1.31602 0.0948,1.65091 1.26703,1.26405 1.20608,-0.39804 1.54655,-0.92996 2.2704,-3.54708 0.31711,-1.14653 1.67845,-4.7184 3.0252,-7.9375 1.34675,-3.2191 2.65549,-6.47798 2.9083,-7.24197 0.25281,-0.76398 0.52436,-1.38906 0.60344,-1.38906 0.0791,0 0.0902,0.64637 0.0247,1.43639 l -0.11912,1.43638 1.34313,-0.68177 c 0.95503,-0.48478 1.87827,-0.71086 3.1952,-0.78243 l 1.85209,-0.10067 -1.59045,0.61277 c -3.73129,1.43761 -5.77627,3.67759 -7.12712,7.80674 -0.79318,2.42453 -0.13202,4.55051 1.84952,5.94723 0.64432,0.45415 1.1255,0.87172 1.0693,0.92792 -0.0562,0.0562 -0.73085,-0.0845 -1.49922,-0.31269 -1.75337,-0.52069 -2.44391,-0.52154 -3.44426,-0.004 -0.57898,0.2994 -0.75238,0.54201 -0.64014,0.89564 0.0847,0.26675 0.0118,0.79685 -0.16181,1.17798 -0.35332,0.77547 -0.33446,0.81679 0.48811,1.0695 0.48936,0.15034 0.64799,0.0306 0.96519,-0.72858 0.46236,-1.10659 1.09912,-1.6308 0.69737,-0.57411 -0.14508,0.38159 -0.26378,0.80511 -0.26378,0.94116 0,0.52613 9.12903,-0.0209 11.53528,-0.6912 4.02887,-1.12233 7.0061,-8.12909 6.1912,-14.57072 -0.52884,-4.18045 -1.85676,-7.11802 -5.23297,-11.57619 -2.19433,-2.89753 -3.31783,-4.92856 -3.77079,-6.81672 l -0.29953,-1.24858 -1.06986,0.37747 c -0.58843,0.20761 -1.17396,0.37747 -1.30118,0.37747 -0.46963,0 -0.20965,-0.42788 0.52292,-0.86062 1.15495,-0.68224 2.92984,-2.56213 3.54622,-3.75601 0.77347,-1.49815 0.93921,-4.82294 0.3448,-6.91692 -0.24407,-0.85983 -0.98501,-2.50505 -1.64652,-3.65604 l -1.20276,-2.09272 0.29263,-1.45714 c 0.38507,-1.91739 0.35398,-6.59639 -0.05,-7.52788 l -0.3188,-0.73503 -0.96537,0.79834 c -0.91556,0.75714 -2.6065,3.02464 -2.6065,3.49522 0,0.12057 0.50601,0.23137 1.12447,0.24623 l 1.12448,0.027 -0.85989,0.27585 c -0.47294,0.15171 -0.8599,0.35624 -0.8599,0.4545 0,0.0983 0.35719,0.57873 0.79375,1.06771 1.30735,1.46432 1.04784,1.7603 -0.47853,0.5458 -0.53717,-0.42742 -1.30522,-0.85732 -1.70678,-0.95535 -0.40156,-0.098 -0.78477,-0.26669 -0.85159,-0.37481 -0.19551,-0.31634 1.39541,-2.68092 2.72105,-4.04428 0.6721,-0.69123 1.06491,-1.25678 0.8729,-1.25678 -0.68172,0 -3.61707,1.56806 -4.74493,2.53473 l -1.14517,0.98151 -1.87795,-0.45327 c -4.98268,-1.20263 -9.32884,-1.15089 -12.81255,0.15253 -2.25217,0.84265 -4.34334,2.93886 -5.77774,5.79169 -0.62506,1.24317 -1.56439,2.77248 -2.08738,3.39847 -0.523,0.62599 -0.95091,1.21172 -0.95091,1.30163 0,0.0899 0.32742,0.43326 0.7276,0.76301 l 0.72761,0.59955 -0.8599,-0.15966 c -0.7923,-0.14711 -0.85989,-0.10507 -0.85989,0.53487 0,0.53319 0.13829,0.7029 0.59531,0.73056 l 0.59531,0.036 -0.59531,0.11466 c -0.87912,0.16933 -0.77588,1.43579 0.30003,3.68085 1.10372,2.30308 3.51348,4.94119 6.0597,6.63391 1.02742,0.68302 1.73535,1.28609 1.57318,1.34015 -0.16217,0.0541 -1.01749,-0.1936 -1.90071,-0.55035 -0.88323,-0.35675 -1.65616,-0.56725 -1.71763,-0.46779 -0.45592,0.7377 -1.26927,4.86334 -1.39257,7.0637 -0.18104,3.23088 0.14522,5.64758 1.50923,11.17935 1.48073,6.00511 1.652,7.09488 1.54875,9.85486 -0.0787,2.10327 -0.18768,2.612 -0.7081,3.30525 -0.42927,0.57181 -0.58914,1.09139 -0.52917,1.71979 0.10673,1.11831 0.56962,1.08096 0.74739,-0.0603 0.2028,-1.30188 0.71229,-1.23266 0.68487,0.093 -0.0215,1.03951 0.035,1.13902 0.68897,1.21453 0.55048,0.0636 0.70483,-0.0266 0.67921,-0.39687 -0.0502,-0.72546 0.30768,-1.93434 0.57265,-1.93434 0.1289,0 0.17078,0.47409 0.0931,1.05352 -0.17028,1.26957 0.18169,1.4933 1.70426,1.08332 1.01542,-0.27342 1.04608,-0.31718 1.35667,-1.9359 0.17478,-0.91088 0.45203,-4.14677 0.61611,-7.19086 l 0.29832,-5.53472 -1.03195,-0.79986 c -2.24408,-1.73938 -5.12029,-5.31647 -5.13052,-6.38075 -0.001,-0.1421 0.92025,0.65245 2.04804,1.76567 1.12779,1.11323 2.94349,2.63524 4.0349,3.38225 l 1.98437,1.35821 0.30809,-2.46241 c 0.37143,-2.96875 0.33791,-2.84953 0.61795,-2.19784 0.12507,0.29104 0.23576,2.28612 0.24599,4.43351 0.0263,5.51118 -0.8747,11.21598 -2.08479,13.20082 -0.62131,1.0191 -0.70897,2.4033 -0.18,2.84231 0.29347,0.24355 0.39431,0.10155 0.52987,-0.74617 0.0921,-0.57584 0.30474,-1.13185 0.47259,-1.23559 0.22019,-0.13608 0.25924,0.0945 0.14021,0.82798 -0.19112,1.17775 0.13348,1.71151 1.04082,1.71151 0.51865,0 0.62906,-0.13551 0.62906,-0.77211 z m -6.53452,-37.83443 c -0.63242,-0.39403 -0.94967,-0.87626 -1.25677,-1.91037 -0.22593,-0.76081 -0.41079,-1.69812 -0.41079,-2.0829 0,-0.40415 -0.27935,-0.96204 -0.66146,-1.32102 -0.65765,-0.61783 -0.93868,-2.11666 -0.39687,-2.11666 0.14552,0 0.26458,0.21967 0.26458,0.48816 0,0.57783 0.79569,1.36392 1.38058,1.36392 0.22709,0 0.69396,-0.22801 1.0375,-0.50669 l 0.62463,-0.50669 -0.61711,-0.65804 c -0.37667,-0.40165 -0.58284,-0.90008 -0.52917,-1.27925 0.0798,-0.56371 0.21668,-0.62015 1.47896,-0.6098 0.97256,0.008 1.52972,0.15293 1.85208,0.48187 0.43943,0.44839 0.41305,0.51117 -0.56198,1.33739 -0.92012,0.77971 -0.99118,0.92646 -0.7063,1.45876 0.30662,0.57292 1.72557,1.34078 2.47768,1.34078 0.20265,0 0.80179,-0.29406 1.33142,-0.65348 0.52963,-0.35942 0.96296,-0.53804 0.96296,-0.39694 0,0.14109 -0.49836,1.14762 -1.10748,2.23671 -1.90402,3.4044 -3.44866,4.40203 -5.16246,3.33425 z m 2.3789,-0.82071 c 0.74999,-0.58994 1.91221,-2.32727 1.6993,-2.54018 -0.26217,-0.26217 -2.06375,0.23101 -2.88299,0.78922 -1.24624,0.84914 -1.52219,1.43659 -0.89397,1.90309 0.70143,0.52087 1.27553,0.47883 2.07766,-0.15213 z m 15.40041,-1.72793 c -1.01864,-0.49117 -2.00091,-0.89766 -2.18281,-0.9033 -0.44769,-0.0139 -0.42422,-0.80401 0.0239,-0.80401 0.57104,0 3.48918,1.54006 4.01127,2.11696 0.64432,0.71196 0.32928,0.64229 -1.85235,-0.40965 z m -2.24895,-2.74462 c 0,-0.40474 1.52432,-0.60948 3.14085,-0.42186 2.70065,0.31344 2.47785,0.65702 -0.42888,0.66137 -1.49158,0.002 -2.71197,-0.10555 -2.71197,-0.23951 z m -8.35596,-1.86487 c -0.30291,-0.12254 -0.88081,-0.61506 -1.28422,-1.09449 -0.66115,-0.78572 -0.72336,-1.03065 -0.63084,-2.48366 0.16872,-2.64962 1.71945,-4.2041 4.15722,-4.16725 2.52391,0.0382 4.17143,2.53662 3.61799,5.48669 -0.25659,1.36775 -2.09158,2.52187 -3.97214,2.49828 -0.73549,-0.009 -1.5851,-0.11703 -1.88801,-0.23957 z m 4.03323,-1.21002 1.14773,-0.67261 v -1.58023 c 0,-1.42147 -0.0864,-1.67083 -0.8599,-2.48195 -0.47294,-0.49595 -1.13641,-0.98121 -1.47437,-1.07836 -0.60649,-0.17435 -0.60907,-0.16619 -0.19843,0.62788 1.31861,2.54992 -0.92868,5.61939 -3.26198,4.45538 -0.78014,-0.38918 -0.80396,-0.385 -0.54657,0.0959 0.74921,1.39991 3.34568,1.71685 5.19352,0.63394 z m -16.37759,-1.06448 c -2.15359,-1.16852 -1.96615,-4.83338 0.32727,-6.39884 2.83696,-1.93648 5.88917,0.84961 5.12369,4.67697 -0.32424,1.6212 -3.68182,2.6818 -5.45096,1.72187 z m 3.83313,-0.95166 c 0.94913,-0.47543 0.99219,-0.55475 0.99219,-1.82768 0,-1.49238 -0.5265,-2.73025 -1.34832,-3.17007 -0.69483,-0.37187 -0.89217,-0.18298 -0.5252,0.5027 1.04148,1.94603 -0.88199,4.5844 -2.91677,4.00084 -1.42466,-0.40859 -0.38822,0.6905 1.08612,1.15177 0.54749,0.1713 1.53557,-0.0683 2.71198,-0.65756 z m 12.10469,-6.35094 c -0.57807,-0.31723 -1.29887,-0.4764 -1.91823,-0.42361 -1.08252,0.0923 -1.21324,-0.0674 -0.57642,-0.70425 0.93637,-0.93637 3.06819,-0.31546 3.7959,1.10558 0.38084,0.74368 0.0245,0.74978 -1.30125,0.0223 z m -14.28716,-1.4707 c -5.2e-4,-0.49106 1.5594,-1.1956 2.25861,-1.02011 0.61419,0.15415 1.44521,0.82453 1.44521,1.16584 0,0.0995 -0.83328,0.18027 -1.85174,0.17954 -1.28338,-9.3e-4 -1.85185,-0.10076 -1.85208,-0.32527 z m -3.25457,53.70362 0.28752,-0.7276 0.0281,0.7276 c 0.031,0.80212 0.55732,1.02438 0.55732,0.23536 0,-0.27074 0.29406,-0.92558 0.65348,-1.45521 l 0.65349,-0.96296 h -0.73628 c -0.94865,0 -2.15819,1.23146 -2.15819,2.19729 0,0.92008 0.34802,0.91303 0.71452,-0.0145 z m -32.09602,-2.24896 c 0.3985,-0.6357 -0.0876,-1.36488 -0.98127,-1.47189 -0.55506,-0.0665 -0.72548,0.0518 -0.86276,0.59875 -0.32456,1.29317 1.14464,1.98884 1.84403,0.87314 z m 78.26197,-0.40238 c 3.27212,-1.61087 5.2315,-3.96491 6.437,-7.73356 1.0444,-3.26501 1.9743,-4.2782 4.23812,-4.61768 1.73219,-0.25976 2.50482,-0.99306 2.50482,-2.3773 0,-1.92132 -1.56099,-3.32376 -3.69952,-3.32376 -1.36226,0 -2.55686,0.49541 -3.77623,1.56603 -1.2992,1.14071 -1.93552,2.57199 -2.58597,5.81661 -0.67551,3.36961 -1.41618,4.88319 -3.15434,6.44595 -1.57643,1.41734 -3.22318,2.0464 -5.35706,2.0464 h -1.54553 l -0.61429,1.38907 c -0.42556,0.96228 -0.52559,1.4535 -0.32557,1.59879 0.15879,0.11535 1.60091,0.17488 3.20471,0.13229 2.67789,-0.0711 3.05951,-0.1481 4.67386,-0.94284 z m -25.44922,0.0543 c 0,-0.0823 -0.13186,-0.39607 -0.29303,-0.6972 -0.23502,-0.43916 -0.33896,-0.47499 -0.52511,-0.18105 -0.38689,0.61089 -0.26965,1.02793 0.28897,1.02793 0.29104,0 0.52917,-0.0673 0.52917,-0.14968 z m -18.58654,-3.09146 c -0.13833,-2.1523 -1.19375,-6.81302 -1.54281,-6.81302 -0.43161,0 -0.90498,1.86944 -0.90446,3.57187 4.3e-4,1.42559 0.14317,2.12627 0.61981,3.04271 0.57736,1.11009 1.56188,2.38125 1.84429,2.38125 0.0679,0 0.0603,-0.98226 -0.0168,-2.18281 z m 9.13437,-3.87551 c 0.0424,-1.58419 -0.0355,-2.25496 -0.27127,-2.33716 -0.25473,-0.0888 -0.32407,0.69541 -0.30174,3.4125 0.0237,2.8784 0.0736,3.30861 0.27127,2.33715 0.13326,-0.65485 0.26904,-2.19047 0.30174,-3.41249 z m 30.8083,0.0936 c 7.75267,-14.91186 10.19046,-32.50384 6.81241,-49.16087 -4.54584,-22.41534 -20.24745,-42.213947 -41.46511,-52.284543 -16.23189,-7.704181 -34.89539,-9.152296 -52.42775,-4.06791 -9.1761,2.661072 -19.20333,8.028376 -26.48297,14.175624 -3.70299,3.126967 -8.63472,8.316389 -11.41888,12.015539 -7.872178,10.4593 -12.833918,22.77374 -14.375193,35.67747 -0.156435,1.30969 -0.348354,2.78332 -0.426488,3.27474 l -0.142063,0.89348 0.715431,-0.56275 c 0.393487,-0.30952 1.044801,-0.56276 1.447365,-0.56276 0.553302,0 0.862716,-0.22166 1.267809,-0.90824 0.534524,-0.90595 2.033631,-1.60728 2.803843,-1.31172 0.185658,0.0712 0.760183,-0.29309 1.276722,-0.80963 1.140759,-1.14076 2.460693,-1.26106 3.902494,-0.35567 0.70096,0.44017 1.25193,0.56337 2.26682,0.50687 1.14841,-0.0639 1.43313,0.0227 1.98438,0.60355 0.47295,0.49837 0.91592,0.67941 1.67068,0.68277 0.82794,0.004 1.19645,0.18414 1.90047,0.93061 0.63492,0.67321 1.09837,0.92604 1.69752,0.92604 0.90606,0 2.1218,1.0635 2.1218,1.8561 0,0.31945 0.28854,0.50274 0.96398,0.61235 1.27313,0.2066 2.1835,1.10273 2.38212,2.34487 0.11802,0.73806 0.28965,1.00751 0.64171,1.00751 0.26433,0 0.77883,0.2679 1.14334,0.59532 1.10992,0.99699 4.05094,8.71977 3.71899,9.76565 -0.14275,0.44977 0.0392,0.48695 2.38208,0.48695 2.21831,0 2.66224,-0.0793 3.53765,-0.63192 0.55057,-0.34756 1.88311,-1.07613 2.96121,-1.61905 l 1.96018,-0.98713 -1.04824,-0.80574 c -0.57653,-0.44315 -2.06026,-1.82794 -3.29719,-3.0773 -1.75213,-1.76975 -2.48276,-2.74979 -3.30729,-4.43634 l -1.05834,-2.16477 -1.4552,-0.0206 c -1.81722,-0.0258 -3.80821,-0.91325 -5.22324,-2.32828 -3.70187,-3.70187 -3.32766,-10.29944 0.72714,-12.82004 0.7266,-0.45168 1.3211,-0.91496 1.3211,-1.02951 0,-0.11455 -0.23799,-1.19808 -0.52885,-2.40785 -1.11433,-4.63464 -0.96505,-8.89328 0.40694,-11.60907 0.59618,-1.18013 2.16998,-2.81968 3.2735,-3.41027 1.12741,-0.60337 0.52721,-3.63012 -0.93612,-4.72078 l -0.76027,-0.56665 0.8396,-0.008 c 1.82805,-0.0183 3.24437,2.24154 2.8538,4.55332 -0.13712,0.81156 -0.5082,1.38256 -1.57115,2.4176 -2.57589,2.50824 -3.3233,5.03905 -2.8047,9.49701 0.47476,4.08121 0.89845,6.0646 1.34391,6.29132 0.21828,0.1111 0.93209,0.34563 1.58623,0.5212 1.63058,0.43762 3.30914,2.14026 3.75558,3.80947 0.3314,1.23906 0.35327,1.25883 1.23473,1.11578 0.49355,-0.0801 0.92986,-0.18047 0.96958,-0.22308 0.0397,-0.0426 -0.16099,-0.97043 -0.44603,-2.06183 -0.68482,-2.62213 -0.53533,-3.96482 0.65893,-5.91849 0.52209,-0.85407 1.02896,-2.08433 1.12637,-2.73391 0.23936,-1.59621 -0.45198,-4.05476 -1.74154,-6.19326 -1.03177,-1.71099 -0.98381,-2.34236 0.10054,-1.32366 l 0.59199,0.55614 0.8679,-0.89545 c 2.21425,-2.28452 4.93373,-3.07054 10.62357,-3.07054 6.38693,0 9.6184,-1.07744 13.21314,-4.40552 1.82789,-1.69231 2.06491,-1.37054 0.54939,0.74585 -1.13165,1.58034 -2.2777,2.55318 -4.36165,3.70244 l -1.34435,0.7414 2.11666,0.002 c 3.27091,0.003 5.59805,-0.78455 8.43922,-2.85436 1.44249,-1.05086 3.23309,-3.60283 3.49043,-4.97458 0.26987,-1.43855 0.73383,-1.08061 0.55512,0.42827 -0.22238,1.87764 -1.00561,3.47572 -2.47803,5.05607 l -1.27549,1.36898 1.32292,-0.18232 c 2.87385,-0.39607 6.29664,-2.74572 7.53458,-5.17228 0.71697,-1.40538 0.94045,-3.27382 0.56018,-4.683546 -0.69201,-2.565441 -4.3265,-5.207855 -8.28204,-6.021376 -4.93109,-1.014156 -9.09009,-0.213486 -16.26999,3.132215 -2.06597,0.962705 -3.97099,1.646394 -5.29166,1.899117 -4.524,0.865707 -5.75182,1.192334 -7.35089,1.9555 -2.13337,1.01816 -4.19572,2.87633 -5.2337,4.71554 l -0.81674,1.44717 -0.47923,-0.59182 c -0.81912,-1.01158 -1.11132,-2.60559 -0.76298,-4.16216 0.29034,-1.29739 1.12127,-2.729573 1.58364,-2.729573 0.11553,0 0.14874,0.856863 0.0738,1.904143 l -0.13624,1.90414 1.42834,-1.45857 c 2.28966,-2.338126 5.51468,-3.714778 10.50921,-4.486022 1.44366,-0.222926 2.75796,-0.70385 5.15937,-1.887896 5.97914,-2.948088 9.40371,-3.913295 13.8844,-3.913295 7.50405,0 13.52745,3.983535 14.00616,9.262883 0.17556,1.9361 -0.45043,4.09716 -1.63718,5.65188 l -0.90882,1.19062 0.90131,0.98401 c 2.11676,2.31096 2.72496,5.68908 1.51048,8.38969 -0.54252,1.20639 -0.55561,1.41091 -0.26241,4.10104 0.16972,1.55723 0.42015,2.90804 0.5565,3.00179 0.13635,0.0937 0.70942,0.24425 1.27348,0.33445 2.06942,0.33091 3.92854,3.15962 3.92854,5.97738 0,1.34085 -0.67895,3.48688 -1.3885,4.38882 -0.51774,0.65811 -0.59941,1.08787 -0.62281,3.27753 -0.032,2.99188 -0.56665,5.24295 -1.87465,7.89269 -1.09467,2.2176 -3.7876,5.26154 -6.00725,6.79027 l -1.44871,0.99777 1.56121,1.04254 c 3.59957,2.4037 6.4771,6.7563 8.18943,12.38747 0.46463,1.52796 1.1403,3.29007 1.50149,3.91578 l 0.65671,1.13766 -0.94492,1.04592 c -0.5197,0.57525 -0.94492,1.11641 -0.94492,1.20258 0,0.0862 0.50602,-0.13715 1.12448,-0.49627 3.1033,-1.80197 4.51703,-2.52275 7.19794,-3.66982 l 2.92238,-1.2504 0.15589,-3.52241 c 0.14928,-3.37287 0.64797,-6.10401 1.47673,-8.08751 l 0.37205,-0.89046 -1.67047,-1.80427 c -1.83455,-1.98147 -3.02925,-4.08737 -3.51187,-6.19037 l -0.3136,-1.36647 -1.42081,0.0796 c -1.62989,0.0914 -1.54718,-0.16967 0.23484,-0.74111 1.08257,-0.34714 1.24757,-0.49829 1.3168,-1.20628 0.0734,-0.75105 -0.0124,-0.84133 -1.19063,-1.25219 l -1.26977,-0.44278 1.38373,0.0884 c 1.15561,0.0738 1.40911,0.008 1.53771,-0.39681 0.0847,-0.26684 0.62916,-0.99327 1.20992,-1.61429 0.58077,-0.62102 1.42048,-1.86777 1.86604,-2.77056 0.44555,-0.90278 1.19458,-2.0934 1.66451,-2.64583 0.74562,-0.87651 0.87551,-1.2587 1.02013,-3.00151 0.20065,-2.418 0.98639,-5.06074 1.90386,-6.40342 0.55064,-0.80583 0.84038,-0.99218 1.54268,-0.99218 1.1822,0 2.89662,1.14579 4.80476,3.21117 l 1.5875,1.71832 3.05466,0.31155 c 1.68007,0.17135 3.67059,0.49445 4.42339,0.71801 l 1.36873,0.40647 1.54138,-1.05214 c 2.29016,-1.56325 3.92395,-2.19878 5.75142,-2.23725 l 1.5875,-0.0334 0.52571,1.05833 c 0.41453,0.8345 0.54591,1.73355 0.62118,4.25084 0.0532,1.77834 -0.0298,3.64623 -0.18736,4.21681 -0.26562,0.96202 -0.21897,1.12542 0.76723,2.68696 1.53402,2.42894 2.43752,5.31896 2.44104,7.80814 0.002,1.73604 -0.11566,2.27153 -0.81704,3.70417 -0.45095,0.92111 -1.08412,2.00075 -1.40704,2.3992 -0.58518,0.72205 -0.58556,0.72953 -0.11384,2.24896 0.56363,1.81545 1.48572,3.38003 3.71036,6.2956 3.27446,4.29145 4.52683,6.9109 5.32463,11.13694 0.42804,2.26737 0.4061,5.14518 -0.059,7.73973 -0.30342,1.69261 0.52373,0.76215 2.2159,-2.49265 z m -76.32536,-0.0546 c -6.3737,-6.35025 -13.43423,-16.86678 -16.06619,-23.93027 -0.40973,-1.09958 -0.60129,-1.28941 -1.66798,-1.65287 -0.6628,-0.22584 -1.24729,-0.36841 -1.29888,-0.31683 -0.46156,0.46157 -1.57584,9.09905 -1.21976,9.45513 0.12024,0.12024 1.52697,0.70838 3.12606,1.30698 1.59909,0.59859 2.98923,1.16875 3.08919,1.26702 0.1,0.0983 -0.23497,1.36929 -0.7443,2.8245 l -0.92606,2.64583 0.8766,0.74919 c 1.48109,1.26584 5.53034,4.03147 8.43387,5.76033 2.58239,1.53764 8.33324,4.46284 8.78448,4.46826 0.11119,0.001 -0.96297,-1.15843 -2.38703,-2.57726 z m 6.69734,-0.66146 c 2.45679,-2.85356 6.7323,-8.93351 6.7323,-9.57359 0,-0.16865 -0.60332,-1.22565 -1.34071,-2.34888 l -1.34072,-2.04225 1.7223,-1.88708 1.7223,-1.88708 -0.65716,-1.35009 c -1.60963,-3.3069 -3.04375,-5.71567 -3.40305,-5.71586 -0.1809,-9e-5 -0.24364,1.20862 -0.18358,3.53647 0.0707,2.74055 0.003,3.70835 -0.29986,4.29962 -0.21511,0.41966 -0.53004,1.83458 -0.69984,3.14427 -0.63932,4.93126 -1.92442,9.30973 -4.12233,14.04526 -0.65281,1.40652 -1.18693,2.60197 -1.18693,2.65654 0,0.48026 0.87789,-0.34595 3.05728,-2.87733 z m -3.85236,-0.52916 c -0.002,-2.8415 -0.59349,-9.90123 -1.17966,-14.06897 -0.22358,-1.58968 -0.40651,-2.98867 -0.40651,-3.10886 0,-0.12019 -0.56555,-0.22035 -1.25677,-0.22258 -0.69122,-0.002 -1.42863,-0.11279 -1.63869,-0.24569 -0.28105,-0.17781 -0.79231,0.13832 -1.93577,1.19695 -2.87053,2.65761 -4.17102,2.88613 -5.14948,0.90488 -0.61387,-1.243 -1.39637,-4.50888 -1.39637,-5.82794 0,-0.67973 -0.12696,-0.79889 -1.12448,-1.05534 -0.61846,-0.159 -1.73812,-0.46124 -2.48812,-0.67166 -0.75,-0.21041 -1.43632,-0.38256 -1.52516,-0.38256 -0.19629,0 1.03737,2.4715 2.83946,5.68854 2.8381,5.06649 8.29919,12.76887 11.98072,16.89777 1.15035,1.29013 2.25489,2.57006 2.45454,2.84427 0.66275,0.91028 0.82763,0.5214 0.82629,-1.94881 z m -3.02195,-4.05327 c -0.57057,-0.57057 -0.0829,-1.50192 0.72608,-1.38675 0.97756,0.13917 0.85806,1.77562 -0.1313,1.79794 -0.0987,0.002 -0.3664,-0.18281 -0.59478,-0.41119 z m -0.35016,-6.90373 c -0.48208,-0.19453 -0.40488,-1.40043 0.10211,-1.59498 0.46069,-0.17678 1.19374,0.16766 1.34917,0.63392 0.0975,0.29261 -0.6274,1.15189 -0.94101,1.1154 -0.0987,-0.0115 -0.32837,-0.0809 -0.51027,-0.15434 z m 5.46276,8.66381 c 1.03173,-2.74317 2.27084,-7.42682 2.66574,-10.07608 0.16268,-1.09141 0.34833,-2.23672 0.41256,-2.54513 0.0961,-0.46162 -0.0961,-0.64203 -1.08703,-1.02049 -0.66209,-0.25286 -1.73057,-0.86183 -2.37439,-1.35327 -1.04331,-0.79638 -1.24462,-0.85981 -1.85144,-0.58332 -0.55781,0.25415 -0.65011,0.43271 -0.51071,0.98798 0.48354,1.92608 1.20184,8.62586 1.35742,12.66102 0.097,2.5162 0.26052,4.48074 0.36332,4.36562 0.10281,-0.11511 0.56385,-1.21146 1.02453,-2.43633 z m 28.07318,0.68008 c 0,-0.17881 0.34131,-0.73395 0.75847,-1.23363 0.83993,-1.0061 0.82857,-1.18943 -0.22522,-3.63556 -0.32913,-0.76398 -0.73258,-1.38644 -0.89656,-1.38325 -0.39586,0.008 -2.54711,0.98919 -2.54711,1.16209 0,0.19183 0.89056,2.39382 1.70015,4.2038 0.60877,1.36098 1.21027,1.80159 1.21027,0.88655 z m -66.68104,-3.26396 c -0.17784,-0.55545 -0.78502,-1.90715 -1.34928,-3.00376 -0.56426,-1.09662 -1.02593,-2.06671 -1.02593,-2.15576 0,-0.0891 0.89247,-1.81119 1.98326,-3.82698 1.09079,-2.01579 1.98376,-3.81391 1.98438,-3.99581 8.5e-4,-0.25161 -1.07114,-0.33073 -4.48119,-0.33073 -2.46526,0 -4.52757,0.0893 -4.5829,0.19844 -0.22196,0.43781 0.38844,2.97656 0.71566,2.97656 0.18774,0 1.56554,2.17289 3.06178,4.82865 3.49579,6.2049 3.73515,6.60174 3.8891,6.44779 0.0707,-0.0707 -0.017,-0.58294 -0.19488,-1.1384 z m -10.08991,-3.8704 c 2.08707,-1.31041 3.84698,-2.51886 3.9109,-2.68544 0.0639,-0.16658 -0.065,-0.73664 -0.28654,-1.26681 l -0.40276,-0.96394 -4.16959,2.12238 c -2.29328,1.16731 -4.30344,2.26222 -4.46702,2.43314 -0.40965,0.428 0.81274,3.20321 1.29094,2.93085 0.18117,-0.10319 2.037,-1.25977 4.12407,-2.57018 z m -3.92417,0.7472 c -0.38828,-0.46785 -0.17337,-1.19399 0.35338,-1.19399 0.52966,0 1.05407,0.71371 0.87236,1.18725 -0.19606,0.5109 -0.80454,0.51425 -1.22574,0.007 z m 2.95911,-4.93752 2.65208,-1.36228 -0.17165,-1.29392 c -0.34029,-2.56524 -0.37405,-2.59611 -2.83945,-2.59611 h -2.17272 l 0.67863,0.72761 c 0.68419,0.73356 1.40151,1.91823 1.1615,1.91823 -0.0713,0 -0.41033,-0.28076 -0.75347,-0.6239 -0.34314,-0.34314 -1.33082,-0.90243 -2.19484,-1.24286 -1.34936,-0.53167 -2.1494,-0.63344 -5.671983,-0.72156 l -4.101041,-0.10258 0.79375,0.83811 c 0.833128,0.87968 4.215444,2.63379 6.182444,3.20628 0.66183,0.19263 1.67901,0.81853 2.38125,1.46526 0.67424,0.62094 1.26583,1.13371 1.31465,1.13949 0.0488,0.006 1.2822,-0.60252 2.74085,-1.35177 z m -12.815885,-3.66481 -1.63244,-1.5875 h -1.962102 c -1.684,0 -1.916974,0.0544 -1.643712,0.38364 0.546809,0.65886 5.4121,2.72084 6.549694,2.77584 0.17655,0.008 -0.413598,-0.69885 -1.31144,-1.57198 z m 30.831315,-3.41426 c 0.24965,-0.42263 0.45392,-0.83935 0.45392,-0.92604 0,-0.0867 -11.72766,-0.15761 -26.06146,-0.15761 -14.489601,0 -26.061458,0.10164 -26.061458,0.2289 0,0.1259 0.246767,0.54261 0.54837,0.92604 l 0.54837,0.69714 h 25.059168 25.05916 z m -6.42525,-3.42348 c 0,-1.15336 -0.54093,-2.84629 -1.97921,-6.19428 l -0.994,-2.31381 h -15.8607 -15.860694 l -1.05397,2.28131 c -0.579684,1.25473 -1.349322,3.16116 -1.710307,4.23651 -1.118988,3.33341 -3.145765,3.00718 18.682771,3.00718 h 18.77611 z m -21.833701,-0.93884 c -0.247215,-0.3773 -0.376006,-0.87747 -0.286204,-1.11149 0.104261,-0.2717 -0.07649,-0.6141 -0.500075,-0.94729 -0.915101,-0.71982 -0.922846,-2.15324 -0.01485,-2.74819 0.356677,-0.2337 0.869518,-0.35476 1.139647,-0.26903 0.346152,0.10987 0.664749,-0.0789 1.07921,-0.63952 0.694963,-0.93998 1.646103,-1.04443 2.424303,-0.26623 0.29104,0.29104 0.52917,0.63645 0.52917,0.76756 0,0.13112 0.43054,0.2262 0.95676,0.21128 1.64762,-0.0467 2.35503,1.89849 1.06069,2.91663 -0.39218,0.30848 -0.62839,0.77072 -0.62839,1.22967 0,0.9329 -0.37376,1.30602 -1.23692,1.23478 -1.23683,-0.10206 -2.38932,-0.057 -3.23748,0.12671 -0.711938,0.15416 -0.903259,0.079 -1.285861,-0.50488 z m 3.373831,-0.62443 c 1.62888,0.15651 1.84137,-0.21736 0.85702,-1.50791 -0.94988,-1.24536 -2.13373,-1.30721 -2.984892,-0.15596 -0.913085,1.23502 -0.733647,2.37041 0.288193,1.82354 0.293129,-0.15688 1.120979,-0.22873 1.839679,-0.15967 z m -2.709593,-2.31124 c 0.439631,-0.52972 0.146787,-1.194 -0.52637,-1.194 -0.600278,0 -0.935532,0.57181 -0.69807,1.19063 0.194911,0.50793 0.804302,0.5096 1.22444,0.003 z m 5.266633,0.0302 c 0.39126,-0.47144 0.0981,-1.22416 -0.47673,-1.22416 -0.71252,0 -1.09927,0.53344 -0.79666,1.09886 0.3095,0.57832 0.85303,0.6318 1.27339,0.1253 z m -2.65812,-1.19377 c 0.58456,-0.37045 0.24598,-1.21193 -0.52366,-1.30148 -0.79105,-0.092 -1.215691,0.58869 -0.73131,1.17233 0.34414,0.41466 0.74015,0.45541 1.25497,0.12915 z m 50.04636,5.12898 c 0.78789,-0.45039 3.25191,-0.51593 4.01633,-0.10683 0.46463,0.24866 0.69811,0.13902 1.63626,-0.76839 2.31021,-2.23451 3.95746,-2.91601 4.92714,-2.03846 0.39046,0.35337 0.64037,0.25874 2.44433,-0.92554 4.84339,-3.17964 7.6912,-8.12594 7.6912,-13.35869 0,-2.40819 -0.49986,-4.38619 -1.82346,-7.21558 -1.11681,-2.38735 -1.41457,-3.64727 -1.42283,-6.02053 -0.009,-2.46339 -0.44189,-5.85312 -1.08144,-8.45973 -0.51827,-2.11234 -2.41635,-6.48241 -2.81544,-6.48215 -0.11584,7e-5 -0.86547,0.26162 -1.66584,0.58121 -1.13784,0.45435 -2.03224,0.58596 -4.10104,0.60347 -2.08135,0.0176 -3.04097,0.16013 -4.49791,0.66803 -2.31675,0.80763 -5.54615,0.86253 -8.99584,0.15292 -1.95758,-0.40267 -3.08736,-0.46268 -6.35,-0.33729 -2.36407,0.0909 -4.50364,0.31553 -5.29166,0.55568 -1.51501,0.46169 -3.78042,1.81985 -4.003,2.39989 -0.0828,0.21571 0.1024,0.91461 0.4115,1.55313 1.44907,2.99338 1.32264,5.73641 -0.3867,8.38958 -1.07746,1.67238 -1.16773,2.77711 -0.47049,5.75802 0.39302,1.68027 0.40221,1.96791 0.0695,2.1758 -0.54167,0.33849 -3.12791,0.85225 -3.52437,0.70012 -0.18182,-0.0698 -0.47758,-0.61748 -0.65724,-1.21713 -0.92511,-3.08772 -4.18658,-4.59093 -6.77725,-3.12362 -2.77676,1.5727 -3.53696,5.40304 -1.70793,8.60556 1.54567,2.70635 4.46526,3.95973 7.42658,3.18821 1.16824,-0.30437 1.54957,-0.32479 1.54957,-0.083 0,0.1764 -0.17859,0.46895 -0.39688,0.6501 -0.57369,0.47613 -0.49914,0.92468 0.44947,2.70446 1.88858,3.54334 6.3585,7.30765 10.65652,8.9743 2.11929,0.82181 5.31388,1.81499 5.83794,1.81499 0.15227,0 0.39077,-0.38695 0.53,-0.85989 0.46087,-1.56545 2.492,-1.30055 5.41253,0.70589 1.92844,1.32487 1.98942,1.34195 2.91042,0.81546 z m -9.8e-4,-15.97272 c -0.80091,-0.25638 -1.79802,-0.69012 -2.21581,-0.96386 -0.72099,-0.47242 -0.79937,-0.4749 -1.5418,-0.0488 -0.82232,0.47194 -1.79765,0.59881 -1.79765,0.23383 0,-0.11829 0.37185,-0.56477 0.82633,-0.99218 0.45449,-0.42741 0.99187,-1.16406 1.19418,-1.637 0.46665,-1.09089 0.83299,-1.09758 0.93928,-0.0172 0.0694,0.70543 0.28192,0.94167 1.30433,1.44998 1.87204,0.93073 4.59958,1.31167 6.91082,0.9652 1.05706,-0.15846 2.13029,-0.37374 2.38495,-0.4784 0.63366,-0.26043 0.59028,0.25631 -0.0734,0.87464 -1.24948,1.16407 -5.24594,1.47333 -7.93121,0.61374 z m -27.49063,-3.34186 c -1.53595,-2.55427 -3.62511,-3.89766 -4.68868,-3.01498 -0.36725,0.3048 -0.41102,0.28236 -0.32459,-0.16643 0.25666,-1.3327 2.57068,-1.31932 4.16724,0.0241 0.87808,0.73885 1.70671,2.62982 1.57147,3.58613 -0.0821,0.58035 -0.13874,0.54685 -0.72544,-0.42882 z m 30.91575,-1.7061 c -1.68167,-0.51028 -2.63039,-1.59505 -2.63039,-3.00758 0,-1.26101 1.5451,-2.46564 3.78086,-2.94774 0.69761,-0.15042 0.72668,-0.21324 0.52917,-1.14367 -0.26287,-1.23833 -0.17357,-4.03616 0.13878,-4.34851 0.13717,-0.13717 0.30888,0.55791 0.41204,1.66794 0.23256,2.50227 0.72464,3.49396 2.02457,4.08014 0.57002,0.25705 1.24558,0.6985 1.50125,0.98101 0.60577,0.66937 0.59934,2.29212 -0.0128,3.22635 -0.91065,1.38982 -3.69591,2.11338 -5.7435,1.49206 z m 3.57452,-1.4465 c 1.63064,-0.68133 1.91209,-2.18638 0.59243,-3.16808 -0.93545,-0.69589 -3.33782,-0.72638 -4.62589,-0.0587 -1.03499,0.53648 -1.50815,1.54023 -1.09232,2.31721 0.62431,1.16653 3.35225,1.65061 5.12578,0.90958 z m -15.56357,-3.33748 c -0.8047,-0.95634 -1.06621,-2.14847 -0.90301,-4.11649 0.3175,-3.82859 3.55086,-4.08351 4.44638,-0.35056 0.8854,3.69079 -1.58061,6.79965 -3.54337,4.46705 z m 19.36813,-0.78848 c -0.75776,-0.45365 -1.35824,-2.46846 -1.22272,-4.10265 0.21598,-2.6045 1.83359,-3.81939 3.22835,-2.42463 1.29516,1.29517 1.54253,4.53064 0.45879,6.00063 -0.52693,0.71472 -1.72324,0.97037 -2.46442,0.52665 z m -23.76199,-9.15555 c 0.01,-0.85227 0.95124,-2.63011 1.70759,-3.22505 0.86317,-0.67897 2.17463,-0.96394 3.29934,-0.71691 0.82521,0.18125 2.3956,1.31357 2.3956,1.72735 0,0.12207 -0.64313,0.15557 -1.42918,0.0744 -2.23946,-0.23114 -3.2352,0.0727 -4.68645,1.43022 -1.01031,0.94503 -1.29144,1.10012 -1.2869,0.70995 z m 27.64081,-1.95821 c -0.3227,-0.52215 -2.23832,-1.31914 -3.17062,-1.31914 -0.51979,0 -1.35797,0.17252 -1.86262,0.38337 -0.76543,0.31982 -0.91755,0.32341 -0.91755,0.0216 0,-1.71513 2.45754,-2.55155 4.49265,-1.52908 0.83516,0.4196 2.12194,1.92722 2.12194,2.48611 0,0.31289 -0.46237,0.283 -0.6638,-0.0429 z m -74.124336,27.322 c -0.443127,-1.73606 0.347973,-3.10885 1.791546,-3.10885 0.731091,0 0.970898,-0.14638 1.294362,-0.79007 0.507736,-1.01039 1.456577,-1.49562 2.298599,-1.17549 0.465321,0.17692 0.668064,0.14285 0.772706,-0.12984 0.209166,-0.54508 1.580441,-1.03251 2.356663,-0.83769 0.37157,0.0933 0.80994,0.46444 0.97415,0.82484 0.34508,0.75736 0.0362,1.274 -0.34955,0.58469 -0.39386,-0.70379 -1.718119,-0.5963 -2.227295,0.1808 -0.377487,0.57612 -0.504176,0.61242 -1.240992,0.35556 -0.742153,-0.25871 -0.880499,-0.2164 -1.447382,0.44264 -0.405017,0.47086 -0.569572,0.90898 -0.46507,1.23823 0.146424,0.46135 0.06302,0.49377 -0.881647,0.34271 -0.89583,-0.14325 -1.104411,-0.0797 -1.475037,0.44945 -0.237416,0.33896 -0.431666,0.94698 -0.431666,1.35117 v 0.73487 h 2.116666 2.116667 v -0.83906 c 0,-1.06875 0.665202,-1.80677 1.628507,-1.80677 0.414008,0 0.752743,-0.13945 0.752743,-0.30989 0,-0.63411 0.886876,-1.27761 1.760796,-1.27761 0.70004,0 0.88504,-0.10747 0.88504,-0.51416 0,-0.66504 0.97004,-1.33792 1.92878,-1.33792 0.6566,0 0.73013,-0.076 0.57587,-0.59531 -0.34988,-1.17785 -1.82147,-1.68308 -2.50465,-0.8599 -0.3721,0.44835 -1.05834,0.53413 -1.05834,0.13229 0,-0.58277 -1.08727,-1.32291 -1.943364,-1.32291 -0.990265,0 -1.626234,0.55204 -1.900074,1.64931 -0.169019,0.67727 -0.216155,0.69831 -0.740943,0.33073 -1.201159,-0.84132 -2.652164,-0.20057 -2.93275,1.29509 -0.165363,0.88146 -0.192165,0.8985 -0.958245,0.60934 -0.698744,-0.26375 -0.862036,-0.22333 -1.439876,0.35642 -0.374852,0.37608 -0.679176,1.01983 -0.716301,1.5152 -0.06136,0.81874 -0.106806,0.85338 -0.919536,0.70091 -0.690351,-0.12951 -0.985183,-0.0302 -1.531114,0.51573 -0.648653,0.64866 -0.872095,1.47435 -0.499737,1.84671 0.09701,0.097 1.170845,0.17639 2.386291,0.17639 h 2.209902 z m 14.463136,0.16551 c 0,-0.37746 -1.24397,-1.55473 -1.64162,-1.55358 -0.18851,5.4e-4 -0.72971,0.23692 -1.20265,0.52528 -0.87081,0.53094 -1.12893,0.30886 -0.60465,-0.52023 0.37904,-0.59939 -0.44086,-1.32895 -1.49349,-1.32895 -0.77583,0 -0.91194,0.10145 -1.04786,0.78102 -0.13697,0.68489 -0.24482,0.76331 -0.876115,0.63705 -0.820765,-0.16415 -1.600281,0.43809 -1.600281,1.23636 0,0.4453 0.247411,0.50832 2.262796,0.57641 3.26375,0.11026 6.20387,-0.0572 6.20387,-0.35336 z m 3.96875,-0.0405 c 0,-0.1859 -0.18534,-0.60262 -0.41188,-0.92604 -0.72846,-1.04003 -2.76498,-0.56292 -3.10225,0.72678 -0.13119,0.50166 -0.0194,0.53726 1.68682,0.53726 1.30643,0 1.82731,-0.0964 1.82731,-0.338 z m 4.36207,-0.25731 c -0.2707,-0.93963 -1.4067,-1.83444 -2.07288,-1.63277 -0.99663,0.3017 -1.0625,0.26257 -1.23671,-0.73461 -0.094,-0.53808 -0.32432,-1.16316 -0.51181,-1.38906 -0.38175,-0.45999 -1.48004,-0.55271 -1.73129,-0.14616 -0.30556,0.4944 -0.92598,0.27379 -0.9301,-0.33073 -0.008,-1.16445 -1.19721,-2.01126 -2.12633,-1.51401 -0.46912,0.25106 -0.51896,0.45003 -0.36683,1.46451 0.19451,1.29712 -0.1459,1.57421 -0.62964,0.51252 -0.34211,-0.75084 -1.37153,-0.90163 -1.89004,-0.27686 -0.25331,0.30522 -0.22092,0.55097 0.15694,1.19063 0.37691,0.63806 0.65722,0.80602 1.34513,0.80602 0.52867,0 1.08554,0.21655 1.42194,0.55295 l 0.55294,0.55295 0.58859,-0.55295 c 1.27883,-1.2014 3.41735,-0.45994 3.77082,1.3074 0.15608,0.78041 0.16897,0.78548 1.99394,0.78548 1.77929,0 1.83146,-0.0186 1.66533,-0.59531 z m 77.33156,-11.87113 1.59921,-0.82477 -0.48953,-1.76654 c -0.26925,-0.97159 -0.62387,-2.11849 -0.78806,-2.54866 -0.29091,-0.76215 -0.30847,-0.76861 -0.68767,-0.25296 -0.76312,1.03774 -1.98254,6.21771 -1.46371,6.21771 0.1268,0 0.95019,-0.37115 1.82976,-0.82478 z m -18.06489,-0.39816 c 1.14814,-2.7479 -0.29507,-6.39064 -2.7244,-6.8765 l -0.86131,-0.17227 0.16867,1.15929 c 0.0928,0.63761 0.69199,2.29793 1.33161,3.68959 0.63961,1.39167 1.16294,2.67159 1.16294,2.84427 0,0.65245 0.53752,0.27697 0.92249,-0.64438 z m 22.89001,-1.43886 c 0,-0.37165 -2.4598,-2.92148 -3.17524,-3.29145 l -0.72516,-0.375 0.75603,2.17194 c 0.41582,1.19456 0.75763,2.18518 0.75958,2.20137 0.0169,0.14021 2.38479,-0.56166 2.38479,-0.70686 z m -27.25614,-17.34712 c 0.005,-1.3396 -0.51702,-2.87372 -1.46546,-4.30691 -0.79187,-1.19659 -0.86977,-1.23437 -1.53788,-0.74584 -0.42962,0.31415 -0.37858,0.49854 0.71419,2.57969 0.64728,1.23275 1.32293,2.70208 1.50143,3.2652 0.39411,1.24331 0.78161,0.85363 0.78772,-0.79214 z m 18.52489,106.38187 c 0,-0.44999 1.65668,-1.25391 2.31914,-1.12538 0.79656,0.15455 0.63892,0.7491 -0.30297,1.14265 -1.22096,0.51015 -2.01617,0.50334 -2.01617,-0.0173 z m -53.37969,-0.90575 c -1.15953,-0.52599 -1.42029,-0.96822 -0.72761,-1.23402 0.63293,-0.24288 2.38126,0.57179 2.38126,1.1096 0,0.67487 -0.37755,0.70328 -1.65365,0.12442 z m 58.31858,-0.44776 c -0.41261,-0.41261 -0.11291,-0.90137 0.78196,-1.27527 1.20746,-0.50451 1.68748,-0.50705 1.68748,-0.009 0,0.21532 -0.47151,0.63204 -1.04779,0.92604 -1.17791,0.60093 -1.17869,0.60112 -1.42165,0.35816 z m -63.08108,-1.6728 c -1.61757,-0.98625 -0.7705,-1.6959 0.96654,-0.80973 1.18274,0.60338 1.45113,1.33661 0.48867,1.33501 -0.32742,-5.4e-4 -0.98227,-0.23692 -1.45521,-0.52528 z m 67.57899,-0.44387 c -0.43351,-0.43351 -0.0912,-0.94596 0.94049,-1.40786 0.80016,-0.35824 1.21199,-0.4211 1.45229,-0.22166 0.45146,0.37467 0.23356,0.65678 -0.98908,1.28052 -1.15873,0.59115 -1.16099,0.59171 -1.4037,0.349 z m -71.94461,-1.73016 c -0.98127,-0.57234 -1.24406,-1.08156 -0.72401,-1.40297 0.38532,-0.23814 2.50994,0.99685 2.50994,1.45897 0,0.6012 -0.69662,0.57935 -1.78593,-0.056 z m 76.44253,-0.65109 c -0.39099,-0.39099 -0.12768,-0.85842 0.78789,-1.39861 1.70961,-1.0087 2.3265,-0.20525 0.69409,0.904 -1.05709,0.71832 -1.20793,0.76866 -1.48198,0.49461 z m -80.80816,-1.97072 c -0.86794,-0.55584 -1.09457,-1.11621 -0.58004,-1.4342 0.37974,-0.23469 2.36598,1.10909 2.36598,1.60069 0,0.5532 -0.77496,0.48096 -1.78594,-0.16649 z m 85.04149,-0.67511 c -0.38307,-0.38307 -0.13574,-0.86391 0.71474,-1.38953 1.79666,-1.1104 2.50406,-0.28528 0.76725,0.89492 -1.0571,0.71831 -1.20794,0.76866 -1.48199,0.49461 z m -89.00679,-2.00643 c -0.98155,-0.68825 -1.28499,-1.26076 -0.82042,-1.54788 0.60281,-0.37256 2.50234,1.06956 2.25564,1.71247 -0.21808,0.5683 -0.42365,0.54472 -1.43522,-0.16459 z m 93.14355,-1.16581 c -0.1126,-0.29345 0.11004,-0.68678 0.67394,-1.19063 0.96424,-0.86155 1.31036,-0.93263 1.54638,-0.31757 0.11332,0.2953 -0.12284,0.6751 -0.7359,1.18351 -1.05319,0.8734 -1.25677,0.91793 -1.48442,0.32469 z m -97.42321,-2.17677 c -0.61306,-0.50842 -0.84922,-0.88821 -0.73591,-1.18351 0.23888,-0.62251 0.56986,-0.54404 1.62948,0.38632 1.67765,1.473 0.83156,2.22783 -0.89357,0.79719 z m 101.04756,-1.20801 c 0,-0.41579 1.57761,-1.73326 2.0755,-1.73326 0.59505,0 0.29498,0.96678 -0.47728,1.53774 -0.90081,0.666 -1.59822,0.75132 -1.59822,0.19552 z m -104.75469,-2.15365 c -0.84267,-0.70906 -1.09728,-1.69628 -0.43748,-1.69628 0.59569,0 2.00468,1.31827 2.00468,1.87561 0,0.70073 -0.60335,0.63169 -1.5672,-0.17933 z m 108.54848,-1.05061 c -0.1972,-0.51389 1.14176,-1.96858 1.81196,-1.96858 0.72881,0 0.57626,0.59632 -0.39282,1.53559 -0.98609,0.95575 -1.19417,1.01924 -1.41914,0.43299 z M 105.86444,199.0075 c -0.8323,-0.85872 -0.91122,-1.47807 -0.18834,-1.47807 0.47926,0 1.75368,1.40452 1.75368,1.9327 0,0.70598 -0.613,0.52794 -1.56534,-0.45463 z m 115.60075,-0.8994 c 0,-0.52884 1.29972,-1.90159 1.80042,-1.90159 0.52366,0 0.35819,0.7033 -0.36873,1.5672 -0.76433,0.90836 -1.43169,1.06423 -1.43169,0.33439 z m -118.91326,-2.82893 c -0.67602,-0.88631 -0.76163,-1.71849 -0.1768,-1.71849 0.36327,0 1.89983,1.92376 1.79297,2.24478 -0.20168,0.60587 -0.93469,0.36717 -1.61617,-0.52629 z m 122.08826,-1.11477 c 0,-0.27028 0.3474,-0.90364 0.77199,-1.40747 0.63657,-0.75535 0.8338,-0.85573 1.12435,-0.57221 0.29284,0.28574 0.25677,0.50924 -0.2135,1.32291 -0.62434,1.08026 -1.68284,1.49336 -1.68284,0.65677 z M 99.519575,191.26116 c -0.909361,-1.10321 -1.015358,-1.53807 -0.429686,-1.76282 0.243812,-0.0936 0.628099,0.17009 1.019301,0.6993 0.94606,1.27983 0.99564,1.42535 0.5981,1.75528 -0.29126,0.24173 -0.53552,0.0995 -1.187715,-0.69176 z m -2.511096,-3.66169 c -0.635062,-0.63506 -1.26823,-1.9494 -1.083271,-2.24867 0.337174,-0.54555 0.872834,-0.20944 1.474902,0.92547 0.454698,0.85711 0.547455,1.26202 0.337258,1.47222 -0.210196,0.21019 -0.410664,0.16921 -0.728889,-0.14902 z m -3.138594,-5.17443 c -0.565797,-0.99409 -0.598446,-1.82897 -0.07152,-1.82897 0.368503,0 1.460585,1.77259 1.460585,2.37071 0,0.5972 -0.952192,0.22584 -1.389062,-0.54174 z m -2.343711,-4.87472 c -0.506878,-1.14588 -0.490879,-1.71674 0.04811,-1.71674 0.380729,0 1.301296,1.63634 1.302423,2.3151 0.0017,1.02633 -0.786291,0.6772 -1.350535,-0.59836 z m -1.927039,-4.63252 c -0.557184,-1.39253 -0.537095,-1.84672 0.08168,-1.84672 0.356167,0 0.640424,0.34862 0.954222,1.17029 0.245817,0.64366 0.3677,1.2985 0.270852,1.45521 -0.356315,0.57653 -0.892273,0.25712 -1.306754,-0.77878 z m -1.470119,-4.46674 c -0.47467,-0.88693 -0.46209,-2.24356 0.02174,-2.34417 0.467497,-0.0972 1.022779,1.11107 1.022779,2.22554 0,0.7561 -0.663054,0.8314 -1.044515,0.11863 z m -1.343283,-5.20242 c -0.391058,-1.02856 -0.321689,-1.96715 0.145389,-1.96715 0.450992,0 0.919493,1.01986 0.919493,2.0016 0,0.86569 -0.731651,0.84202 -1.064882,-0.0344 z m 153.118397,0.24401 c -0.55881,-0.55881 0.069,-3.00491 0.77121,-3.00491 0.36386,0 0.41464,0.20577 0.30056,1.2179 -0.13435,1.192 -0.70887,2.14992 -1.07177,1.78701 z m 0.72193,-5.21429 c -0.0754,-0.19651 0.0176,-1.29784 0.20674,-2.4474 0.25148,-1.52865 0.45046,-2.09009 0.74072,-2.09009 0.32063,0 0.38309,0.34266 0.32511,1.7835 -0.0771,1.91525 -0.40615,3.11129 -0.85603,3.11129 -0.15369,0 -0.34113,-0.16078 -0.41654,-0.3573 z m 0.86478,-6.69274 c -0.22486,-0.22486 -0.23962,-2.01667 -0.0213,-2.58561 0.23698,-0.61757 0.86754,-0.50837 1.02092,0.1768 0.27946,1.24837 -0.43599,2.97243 -0.99962,2.40881 z m 0.19933,-5.1461 c -0.21678,-0.35076 -0.24691,-2.57846 -0.0377,-2.78766 0.0896,-0.0896 0.34654,-0.0923 0.5711,-0.006 0.56062,0.21513 0.57758,2.69754 0.0199,2.91154 -0.21363,0.082 -0.4626,0.029 -0.55329,-0.11773 z M 85.116587,142.31969 c -0.255837,-0.25584 -0.20879,-2.0086 0.06554,-2.44185 0.348982,-0.55115 1.080985,-0.1392 1.080985,0.60834 0,1.32363 -0.637277,2.34276 -1.146528,1.83351 z m 156.368743,-1.05833 c -0.097,-0.097 -0.17639,-0.76059 -0.17639,-1.47461 0,-1.09355 0.073,-1.28434 0.46302,-1.2102 0.60564,0.11514 0.85169,2.8612 0.25636,2.8612 -0.20163,0 -0.44598,-0.0794 -0.54299,-0.17639 z M 85.469365,136.46123 c 0,-1.22608 0.600424,-2.19035 1.073546,-1.72411 0.210422,0.20737 0.254993,0.7138 0.133892,1.52136 -0.143804,0.95895 -0.288128,1.21052 -0.694483,1.21052 -0.417769,0 -0.512955,-0.18701 -0.512955,-1.00777 z m 155.471005,-0.46908 c -0.24338,-0.63426 -0.19206,-2.44123 0.074,-2.60567 0.12903,-0.0798 0.35063,0.002 0.49245,0.18282 0.30725,0.39062 0.57446,2.04253 0.40612,2.51063 -0.1678,0.4666 -0.78108,0.41125 -0.97258,-0.0878 z M 86.266728,131.60142 c 0.0053,-1.2827 0.270355,-2.06992 0.697008,-2.06992 0.538298,0 0.667918,0.53436 0.419566,1.72969 -0.287311,1.38284 -1.121903,1.63714 -1.116574,0.34023 z m 154.027882,-0.5617 c -0.45662,-0.55019 -0.68019,-2.46918 -0.31403,-2.69548 0.44609,-0.27571 0.80415,0.16838 1.06372,1.3193 0.32799,1.45427 -0.0734,2.19108 -0.74969,1.37618 z M 87.1715,127.06735 c -0.23675,-0.61696 0.512799,-2.41687 1.049513,-2.52022 0.454594,-0.0875 0.486434,0.0218 0.332784,1.14281 -0.09345,0.68178 -0.23739,1.34879 -0.319868,1.48225 -0.223162,0.36108 -0.909632,0.29334 -1.062429,-0.10484 z m 151.79153,-1.28466 c -0.52951,-1.40475 -0.60092,-2.26602 -0.20063,-2.41963 0.58061,-0.2228 0.98006,0.42532 1.03902,1.68584 0.059,1.26213 -0.46602,1.72168 -0.83839,0.73379 z M 88.681425,122.30011 c -0.380906,-0.45896 0.371284,-2.82278 0.898238,-2.82278 0.589962,0 0.693827,0.46113 0.357048,1.5852 -0.389684,1.30065 -0.836967,1.74162 -1.255286,1.23758 z m 148.637345,-1.67905 c -0.44398,-1.15315 -0.43607,-2.06977 0.0179,-2.06977 0.43447,0 1.01628,1.03591 1.12452,2.00221 0.10658,0.95153 -0.78182,1.00407 -1.14238,0.0676 z M 90.231865,117.25313 c 0,-0.77735 0.851689,-2.5383 1.227657,-2.5383 0.619241,0 0.687091,0.66951 0.177523,1.75171 -0.489004,1.03852 -1.40518,1.55138 -1.40518,0.78659 z m 144.981415,-1.90074 c -0.54159,-1.26349 -0.49783,-1.69589 0.17165,-1.69589 0.42702,0 1.16151,1.50042 1.16151,2.37275 0,0.97896 -0.7968,0.57442 -1.33316,-0.67686 z M 92.221848,112.60724 c -0.232703,-0.37652 0.86848,-2.39033 1.30707,-2.39033 0.6264,0 0.659334,0.36737 0.137437,1.53307 -0.471238,1.05254 -1.095024,1.42273 -1.444507,0.85726 z m 141.028692,-1.48403 c -0.53845,-0.82178 -0.66077,-1.99646 -0.22404,-2.15148 0.33375,-0.11847 1.40327,1.72998 1.40327,2.42527 0,0.63746 -0.68661,0.47805 -1.17923,-0.27379 z M 94.603097,108.10932 c -0.232702,-0.37652 0.86848,-2.39032 1.307071,-2.39032 0.678177,0 0.713834,0.51443 0.110112,1.58861 -0.578107,1.0286 -1.095916,1.32153 -1.417183,0.80171 z m 135.963153,-1.8546 c -0.6891,-1.0413 -0.7075,-1.85864 -0.0419,-1.85864 0.45347,0 1.65712,2.21661 1.41573,2.60718 -0.32167,0.52047 -0.65385,0.33948 -1.37387,-0.74854 z M 97.215875,103.7585 c -0.291882,-0.76063 1.154786,-2.77128 1.735649,-2.41229 0.432338,0.2672 0.331635,0.69244 -0.421269,1.77888 -0.74238,1.07125 -1.083317,1.23555 -1.31438,0.63341 z m 130.476565,-1.93738 c -0.80187,-1.18005 -0.849,-1.65837 -0.16341,-1.65837 0.53858,0 1.60908,1.47297 1.60908,2.21404 0,0.75492 -0.75134,0.46613 -1.44567,-0.55567 z M 100.47173,98.937335 c -0.41879,-0.418792 1.25089,-2.520055 1.82684,-2.299043 0.53109,0.203797 0.45849,0.578673 -0.30621,1.581252 -0.64268,0.842599 -1.15432,1.084107 -1.52063,0.717791 z m 124.51223,-0.9574 c -0.29822,-0.327422 -0.6813,-0.864969 -0.85128,-1.19455 -0.25761,-0.499484 -0.23477,-0.627745 0.13719,-0.770481 0.30947,-0.118754 0.67573,0.105472 1.19492,0.73153 1.22331,1.475118 0.77852,2.616155 -0.48083,1.233501 z m -121.3977,-3.120288 c -0.25452,-0.411814 1.14537,-2.105232 1.74032,-2.105232 0.71021,0 0.64553,0.598858 -0.16928,1.567199 -0.70137,0.833539 -1.2684,1.027726 -1.57104,0.538033 z m 117.93083,-1.125641 c -0.86691,-0.894424 -1.11506,-1.773341 -0.50068,-1.773341 0.57739,0 2.12365,1.77195 1.94729,2.231519 -0.23145,0.603152 -0.50053,0.517927 -1.44661,-0.458178 z M 107.18515,91.058667 c -0.23243,-0.28006 -0.1438,-0.547574 0.39261,-1.185065 1.11425,-1.324206 2.4685,-1.000955 1.4154,0.337845 -0.77592,0.986424 -1.43584,1.295656 -1.80801,0.84722 z M 217.9283,89.957639 c -0.94861,-0.86904 -1.12852,-1.424822 -0.52622,-1.625591 0.33832,-0.112772 1.59991,0.864444 1.94256,1.504687 0.18003,0.336398 0.1564,0.564641 -0.0786,0.75972 -0.24867,0.206375 -0.59636,0.04033 -1.33769,-0.638816 z M 110.71078,87.420206 c -0.22449,-0.363228 1.62896,-2.157264 2.07507,-2.008559 0.61185,0.20395 0.4815,0.742726 -0.36724,1.51793 -0.93127,0.850589 -1.40182,0.985768 -1.70783,0.490629 z m 103.36638,-0.907019 c -0.8251,-0.694275 -1.02809,-1.268173 -0.55253,-1.562088 0.37656,-0.232727 2.11971,1.234381 2.11972,1.784045 1e-5,0.660634 -0.62318,0.572373 -1.56719,-0.221957 z m -99.1729,-2.150948 c -0.1819,-0.06522 -0.33073,-0.23444 -0.33073,-0.376037 0,-0.35491 1.63124,-1.81512 2.02773,-1.81512 0.63782,0 0.6616,0.581112 0.0505,1.234506 -0.76002,0.812639 -1.30979,1.113603 -1.74752,0.956651 z m 95.09718,-1.163037 c -0.90164,-0.744215 -0.96904,-0.879558 -0.61454,-1.234053 0.35449,-0.354495 0.51761,-0.303556 1.48731,0.464456 0.59903,0.474441 1.0443,0.997316 0.98949,1.161944 -0.19199,0.576679 -0.85834,0.436291 -1.86226,-0.392347 z m -91.19458,-2.329457 c 0,-0.601926 1.68433,-1.730068 2.25568,-1.510822 0.6292,0.241446 0.4563,0.631468 -0.5973,1.347412 -1.18006,0.801868 -1.65838,0.849 -1.65838,0.16341 z m 86.77334,-0.793569 c -0.7293,-0.614612 -0.84972,-0.84006 -0.59067,-1.105904 0.25832,-0.265092 0.44919,-0.26712 0.92605,-0.0098 1.16892,0.630679 1.86586,1.288416 1.68142,1.586841 -0.31511,0.509861 -1.05897,0.336104 -2.0168,-0.4711 z M 123.21659,78.55511 c -0.41708,-0.417075 -0.10422,-0.908009 0.90759,-1.424198 1.94962,-0.994622 2.41443,-0.08325 0.5127,1.005274 -1.15743,0.662492 -1.17233,0.666887 -1.42029,0.418924 z m 78.0694,-1.023775 c -1.02993,-0.699855 -1.19466,-1.021802 -0.68423,-1.337267 0.4562,-0.281946 2.60718,0.988355 2.60718,1.539717 0,0.665771 -0.76355,0.585384 -1.92295,-0.20245 z M 127.53811,75.71922 c 0,-0.434433 0.98963,-1.127322 1.95682,-1.370072 1.1102,-0.278643 0.91678,0.736146 -0.246,1.290638 -1.13581,0.541631 -1.71082,0.568329 -1.71082,0.07943 z m 69.25469,-0.441899 c -1.10693,-0.588182 -1.32571,-1.308876 -0.39688,-1.307333 0.79275,0.0013 2.38199,0.9889 2.24645,1.395988 -0.16991,0.510299 -0.77715,0.481192 -1.84957,-0.08866 z m -64.59141,-1.519392 c -0.0717,-0.116089 -0.049,-0.337601 0.0505,-0.492249 0.30091,-0.4675 1.92294,-1.196876 2.32153,-1.04392 0.70129,0.269109 0.37383,0.895699 -0.69069,1.321636 -1.1991,0.479783 -1.49416,0.517432 -1.68137,0.214533 z m 60.09349,-0.493094 c -0.98231,-0.406677 -1.42923,-1.412503 -0.62762,-1.412503 0.83631,0 2.31412,0.824569 2.23244,1.245635 -0.11706,0.603501 -0.46321,0.639494 -1.60482,0.166868 z M 136.79853,71.70654 c 0,-0.439677 1.48649,-1.177124 2.37275,-1.177124 0.87023,0 0.62247,0.785316 -0.37988,1.204125 -1.19932,0.501108 -1.99287,0.490356 -1.99287,-0.027 z m 50.53541,-0.312292 c -0.99876,-0.504708 -1.1231,-0.94839 -0.30212,-1.078126 0.7446,-0.117666 2.48581,0.672956 2.35522,1.069425 -0.17102,0.519232 -1.03556,0.522895 -2.0531,0.0087 z m -45.68406,-1.014909 c -0.21081,-0.549378 0.0863,-0.781343 1.41274,-1.103132 0.77133,-0.187117 1.19052,-0.18218 1.38906,0.01636 0.49683,0.496826 0.31762,0.677301 -1.08659,1.094308 -1.66339,0.493975 -1.52252,0.494593 -1.71521,-0.0075 z m 40.65837,-0.350918 c -0.36304,-0.101016 -0.69919,-0.386804 -0.74701,-0.635085 -0.0664,-0.34473 0.10118,-0.45142 0.709,-0.45142 1.11747,0 2.15329,0.442313 2.15329,0.919493 0,0.431308 -0.90783,0.502985 -2.11528,0.167012 z m -35.592,-0.828643 c -0.29167,-0.471938 0.41284,-0.980294 1.63065,-1.176625 1.20075,-0.193582 1.74313,0.18811 1.11679,0.785914 -0.51781,0.494217 -2.50851,0.777312 -2.74744,0.390711 z m 30.59321,-0.327908 c -0.34747,-0.179756 -0.64513,-0.445892 -0.66146,-0.591413 -0.0472,-0.421149 2.0291,-0.462738 2.59043,-0.05189 1.08691,0.795541 -0.5679,1.347408 -1.92897,0.643299 z m -25.64785,-0.907544 c 0.0716,-0.376313 0.38965,-0.494745 1.49963,-0.558362 1.23811,-0.07096 1.39779,-0.02288 1.31796,0.396875 -0.0716,0.376313 -0.38965,0.494745 -1.49963,0.558362 -1.23811,0.07096 -1.39779,0.02288 -1.31796,-0.396875 z m 20.37049,0.167398 c -1.00741,-0.40377 -0.52641,-0.911485 0.84577,-0.892746 1.27325,0.01739 1.94901,0.382956 1.63803,0.886134 -0.21392,0.346133 -1.62731,0.349896 -2.4838,0.0066 z m -15.05909,-0.162939 c -0.46588,-0.182138 -0.41148,-0.791353 0.0878,-0.982937 0.82393,-0.316172 2.2403,-0.170034 2.4006,0.247687 0.0862,0.224557 0.1122,0.446114 0.0578,0.492348 -0.20435,0.17381 -2.22894,0.366949 -2.54623,0.242902 z m 4.78178,-0.50878 c -0.2049,-0.533985 0.34417,-0.891236 1.36978,-0.891236 1.02561,0 1.57468,0.357251 1.36977,0.891236 -0.11617,0.302743 -0.50693,0.423578 -1.36977,0.423578 -0.86285,0 -1.2536,-0.120835 -1.36978,-0.423578 z m 4.84699,0.02936 c -0.20847,-0.543279 0.2795,-0.717862 1.71804,-0.614666 0.81324,0.05834 1.15475,0.200212 1.15475,0.479713 0,0.592868 -2.64931,0.717322 -2.87279,0.134953 z"
       id="path1" /><text
       xml:space="preserve"
       style="font-size:66.1596px;line-height:1.25;font-family:sans-serif;stroke-width:0.264583"
       x="13.107497"
       y="302.40958"
       id="text1"
       transform="rotate(-12.518141)"><tspan
         sodipodi:role="line"
         id="tspan1"
         style="font-style:normal;font-variant:normal;font-weight:normal;font-stretch:normal;font-size:66.1596px;font-family:Allura;-inkscape-font-specification:Allura;stroke-width:0.264583"
         x="13.107497"
         y="302.40958">Alfeedo</tspan></text></g></svg>
